<svg xmlns="http://www.w3.org/2000/svg" xmlns:xlink="http://www.w3.org/1999/xlink" viewBox="0 0 431.48 313.46"><defs><linearGradient id="linear-gradient" x1="414.85" y1="288.81" x2="485.8" y2="288.81" gradientUnits="userSpaceOnUse"><stop offset="0.04" stop-color="#ffe91d"/><stop offset="0.33" stop-color="#ef7d1b"/><stop offset="0.78" stop-color="#d63416"/><stop offset="0.97" stop-color="#bb1d18"/></linearGradient></defs><g style="isolation:isolate"><g id="Layer_1" data-name="Layer 1"><path d="M290.75,295.48c11.67-10.08,23-19.92,34.37-29.69q51.57-44.27,103.16-88.49c13.62-11.7,13.61-11.71,6.72-29.46l82-6.35L480.5,211l-10.7-12.43c-7.68,4.94-15.19,9.73-22.64,14.6-42.12,27.53-84.61,54.52-126.09,83C309.79,303.86,301.48,303.08,290.75,295.48Z" transform="translate(-85.52 -134.72)" style="fill:#f80f0b;opacity:0.85"/><path d="M192.22,211.44c1.1-20.23,1.69-38.91,3.49-57.46.36-3.74,4.71-9.27,8.21-10.19,35.52-9.32,71.56-11.93,107.93-5.62,10.49,1.83,10.93,3.55,4.88,12.36-8.12,11.84-15.71,24.08-24.51,35.39-2.8,3.6-8.54,6.22-13.23,6.79-13.53,1.63-27.45.71-40.76,3.23-12.17,2.3-23.74,7.78-35.57,11.86Z" transform="translate(-85.52 -134.72)" style="fill:#fab331"/><path d="M351.08,227.91c-9,7.75-17.48,15.39-26.42,22.46-1.67,1.33-5.45,1.21-7.74.37-73.94-27.26-138.35-6.62-197.34,39.62-12.37,9.7-23,21.58-33.43,31.48C126,249.61,252.68,181.87,351.08,227.91Z" transform="translate(-85.52 -134.72)" style="fill:#f90e0d;opacity:0.7000000000000001"/><path d="M485.69,353.3H456.11c-2.63-39.12-14.56-74.34-41.26-104.77l37-24.21C477.6,263.91,487,306.77,485.69,353.3Z" transform="translate(-85.52 -134.72)" style="mix-blend-mode:screen;opacity:0.8;fill:url(#linear-gradient)"/><path d="M362.33,282.92l34.85-22.82c24.31,26.29,36.22,57.19,39.08,93H396C390.75,327.81,381.06,303.78,362.33,282.92Z" transform="translate(-85.52 -134.72)" style="fill:#f8130e;opacity:0.8"/><path d="M406.6,177.64C393.85,188.57,382.54,198.43,371,208a8.4,8.4,0,0,1-6.75,1.15c-16.94-5.33-33.78-11-52.23-17.1,9.76-14.24,19.66-28.94,29.94-43.36,1-1.38,4.82-2.12,6.52-1.36,8.37,3.76,16.38,8.3,24.69,12.19,4.66,2.18,9.95,3.08,14.41,5.55C393.69,168.44,399.33,172.77,406.6,177.64Z" transform="translate(-85.52 -134.72)" style="fill:#fab331"/><text transform="translate(0 271.4)" style="font-size:54.5849494934082px;font-family:Excelerate">AGILIS</text><path d="M158,445.7l19-17.36v-.06H165.17l1.1-3H185l-.94,2.72L165.6,444.8v.06h12.62l-1.09,3.05h-19.9Z" transform="translate(-85.52 -134.72)"/><path d="M205.78,447.15a29.72,29.72,0,0,1-7.88,1c-6.86,0-9.32-2.65-9.32-6,0-4.63,4.66-10.87,13.72-10.87,5,0,7.07,2,7.11,4.13,0,4.26-6.46,5.94-14.69,5.87a3.66,3.66,0,0,0,.47,2.53c.68,1,2.13,1.61,4.32,1.61a19,19,0,0,0,5.71-.86Zm-4.32-13.1c-2.47,0-4.87,1.7-6.07,4.6,4.33.05,8.45-.83,8.45-2.95C203.84,434.65,203,434.05,201.46,434.05Z" transform="translate(-85.52 -134.72)"/><path d="M215.79,447.91l3.81-11.07a47.94,47.94,0,0,0,1.41-5.31h5.33a22.87,22.87,0,0,1-.45,2.88h.19a10.44,10.44,0,0,1,7.4-3.15,8.22,8.22,0,0,1,1,.06l-1.19,3.46c-.2,0-.64,0-1,0a8.4,8.4,0,0,0-7.67,5.13l-2.74,8Z" transform="translate(-85.52 -134.72)"/><path d="M260.74,436.83c0,4.69-4.41,11.35-13.49,11.35-6.6,0-8.27-3-8.27-5.61,0-5,5-11.31,13.92-11.31C259.73,431.26,260.74,434.57,260.74,436.83Zm-15.6,5.53c0,1.49.16,3.16,2.87,3.16,4.43,0,6.57-6.19,6.57-9,0-1.36-.51-2.55-2.7-2.55C247.85,433.92,245.1,439.36,245.14,442.36Z" transform="translate(-85.52 -134.72)"/><path d="M297.29,427.17l-1.56,4.36h5.6l-.84,2.48h-5.64L292,442.39a6.44,6.44,0,0,0-.34,1.69c0,.92.79,1.32,2.21,1.32a18,18,0,0,0,1.94-.07l-.66,2.58a26,26,0,0,1-3.94.24c-3.93,0-6-1.22-6-3.15a7.42,7.42,0,0,1,.54-2.55l2.91-8.44h-3.5l.82-2.48h3.56l1.22-3.46Z" transform="translate(-85.52 -134.72)"/><path d="M327.83,436.83c0,4.69-4.41,11.35-13.49,11.35-6.6,0-8.26-3-8.26-5.61,0-5,4.95-11.31,13.91-11.31C326.83,431.26,327.83,434.57,327.83,436.83Zm-15.6,5.53c0,1.49.17,3.16,2.87,3.16,4.44,0,6.58-6.19,6.58-9,0-1.36-.52-2.55-2.71-2.55C315,433.92,312.19,439.36,312.23,442.36Z" transform="translate(-85.52 -134.72)"/><path d="M364.72,429.42h-.12l-6.84,1.9-.17-2.74,9.12-2.55H372l-7.56,21.88h-6.11Z" transform="translate(-85.52 -134.72)"/><path d="M406.71,432.14c0,5.83-4.12,16-15.12,16-6.76,0-8.14-3.69-8.14-6.63,0-6.75,5.16-15.78,15.12-15.78C405.85,425.77,406.71,429.69,406.71,432.14Zm-17.21,9.62c0,2.19.65,3.49,3,3.49,5.53,0,8.18-10.76,8.18-13.62,0-1.51-.58-2.93-2.67-2.93C392.33,428.7,389.5,438.5,389.5,441.76Z" transform="translate(-85.52 -134.72)"/><path d="M438,432.14c0,5.83-4.12,16-15.13,16-6.76,0-8.14-3.69-8.14-6.63,0-6.75,5.16-15.78,15.12-15.78C437.1,425.77,438,429.69,438,432.14Zm-17.22,9.62c0,2.19.65,3.49,3,3.49,5.53,0,8.18-10.76,8.18-13.62,0-1.51-.58-2.93-2.67-2.93C423.58,428.7,420.75,438.5,420.75,441.76Z" transform="translate(-85.52 -134.72)"/></g></g></svg>