<svg id="Layer_1" data-name="Layer 1" xmlns="http://www.w3.org/2000/svg" xmlns:xlink="http://www.w3.org/1999/xlink" viewBox="0 0 803.26 86.1"><defs><linearGradient id="linear-gradient" x1="260.17" y1="155.36" x2="264.76" y2="155.36" gradientUnits="userSpaceOnUse"><stop offset="0" stop-color="#80eddb"/><stop offset="1" stop-color="#538498"/></linearGradient><linearGradient id="linear-gradient-2" x1="273.11" y1="141.95" x2="296.67" y2="141.95" xlink:href="#linear-gradient"/><linearGradient id="linear-gradient-3" x1="265.59" y1="165.01" x2="280.18" y2="165.01" xlink:href="#linear-gradient"/><linearGradient id="linear-gradient-4" x1="263.63" y1="143.68" x2="278.8" y2="143.68" xlink:href="#linear-gradient"/><linearGradient id="linear-gradient-5" x1="283.85" y1="154.98" x2="308.02" y2="154.98" xlink:href="#linear-gradient"/><linearGradient id="linear-gradient-6" x1="275.37" y1="129.81" x2="298.59" y2="129.81" xlink:href="#linear-gradient"/><linearGradient id="linear-gradient-7" x1="300.42" y1="132.56" x2="315.22" y2="132.56" xlink:href="#linear-gradient"/><linearGradient id="linear-gradient-8" x1="301.75" y1="153.31" x2="316.94" y2="153.31" xlink:href="#linear-gradient"/><linearGradient id="linear-gradient-9" x1="281.94" y1="167.22" x2="305.8" y2="167.22" xlink:href="#linear-gradient"/><linearGradient id="linear-gradient-10" x1="268.75" y1="127.44" x2="273.35" y2="127.44" xlink:href="#linear-gradient"/><linearGradient id="linear-gradient-11" x1="296.84" y1="121.58" x2="301.44" y2="121.58" xlink:href="#linear-gradient"/><linearGradient id="linear-gradient-12" x1="315.89" y1="142.26" x2="320.48" y2="142.26" xlink:href="#linear-gradient"/><linearGradient id="linear-gradient-13" x1="307.83" y1="169.87" x2="312.43" y2="169.87" xlink:href="#linear-gradient"/><linearGradient id="linear-gradient-14" x1="279.21" y1="176.04" x2="283.81" y2="176.04" xlink:href="#linear-gradient"/></defs><text transform="translate(0 69.7)" style="font-size:82px;font-family:Brolink-Regular, Brolink;letter-spacing:0.07799995236280488em"><tspan xml:space="preserve">ABD  ULIE NJAI</tspan></text><path d="M264.16,153.8a2.31,2.31,0,0,1-.14,3.25,2.29,2.29,0,0,1-3.85-1.79,2.26,2.26,0,0,1,.74-1.59A2.3,2.3,0,0,1,264.16,153.8Z" transform="translate(-37.11 -107.56)" style="fill:url(#linear-gradient)"/><path d="M296.39,139.28a1.1,1.1,0,0,0,0,.18,3.34,3.34,0,0,0,.3,1.52l-7.11,6.55-7.12,6.55a3.48,3.48,0,0,0-1.67-.42l-7.66-22.36a4.29,4.29,0,0,0,.91-.64,4.45,4.45,0,0,0,.71-.85Z" transform="translate(-37.11 -107.56)" style="fill:url(#linear-gradient-2)"/><path d="M266.62,156.74l10.94,1a3.29,3.29,0,0,0,.8,1.52,3.22,3.22,0,0,0,1.5.93l.23,8.76.09,3.8a3.6,3.6,0,0,0-.9.53l-13.69-14.86A4.37,4.37,0,0,0,266.62,156.74Z" transform="translate(-37.11 -107.56)" style="fill:url(#linear-gradient-3)"/><path d="M270.87,131.82h.21l7.72,22.52-.25.2a3.43,3.43,0,0,0-.8,1.13l-11-1a4.33,4.33,0,0,0-1.1-2.27,4.38,4.38,0,0,0-2.06-1.25L270,131.69A4.44,4.44,0,0,0,270.87,131.82Z" transform="translate(-37.11 -107.56)" style="opacity:0.5;fill:url(#linear-gradient-4)"/><path d="M284.13,157.35a3.35,3.35,0,0,0-.28-1.73l14.23-13.11a3.24,3.24,0,0,0,1.71.42L308,166a4.14,4.14,0,0,0-1.54,1.42Z" transform="translate(-37.11 -107.56)" style="fill:url(#linear-gradient-5)"/><path d="M295.92,124.55a4.35,4.35,0,0,0,2.42,1.33v.38l.24,10.19a3.6,3.6,0,0,0-1.15.69l-.22.23-7.43-3.24-14.38-6.3a1.49,1.49,0,0,1,0-.21,4.29,4.29,0,0,0-.06-.88l19.44-4.49A4.36,4.36,0,0,0,295.92,124.55Z" transform="translate(-37.11 -107.56)" style="fill:url(#linear-gradient-6)"/><path d="M315.22,139a4.51,4.51,0,0,0-1,1.3L303,139a3.4,3.4,0,0,0-.82-1.61,3.19,3.19,0,0,0-1.49-.93l-.24-10.51v-.14a4.39,4.39,0,0,0,1.69-1h0L315.22,139Z" transform="translate(-37.11 -107.56)" style="opacity:0.5;fill:url(#linear-gradient-7)"/><path d="M310.31,165.49H310l-8.29-23.25.22-.18a3.43,3.43,0,0,0,.76-1l11.08,1.35a4.37,4.37,0,0,0,1.15,2.85,4.31,4.31,0,0,0,2,1.23l-5.81,19.15A4.49,4.49,0,0,0,310.31,165.49Z" transform="translate(-37.11 -107.56)" style="fill:url(#linear-gradient-8)"/><path d="M284.12,173.63a3.51,3.51,0,0,0-1.86-1.06l-.32-12.43a3.15,3.15,0,0,0,1.14-.69l.2-.2,22.49,10.17a2.45,2.45,0,0,0,0,.27,4,4,0,0,0,.05.85L285,175.18A3.55,3.55,0,0,0,284.12,173.63Z" transform="translate(-37.11 -107.56)" style="opacity:0.5;fill:url(#linear-gradient-9)"/><path d="M273.34,127.53a2.29,2.29,0,0,1-4,1.47,2.3,2.3,0,1,1,3.38-3.12A2.27,2.27,0,0,1,273.34,127.53Z" transform="translate(-37.11 -107.56)" style="opacity:0.5;fill:url(#linear-gradient-10)"/><path d="M300.7,123.27a2.31,2.31,0,0,1-3.86-1.79,2.35,2.35,0,0,1,.74-1.59,2.3,2.3,0,0,1,3.86,1.78A2.35,2.35,0,0,1,300.7,123.27Z" transform="translate(-37.11 -107.56)" style="fill:url(#linear-gradient-11)"/><path d="M316.49,143.81a2.3,2.3,0,0,1,.14-3.24,2.3,2.3,0,0,1,3.25.13,2.31,2.31,0,0,1-.14,3.25A2.3,2.3,0,0,1,316.49,143.81Z" transform="translate(-37.11 -107.56)" style="opacity:0.5;fill:url(#linear-gradient-12)"/><path d="M307.83,169.77a2.24,2.24,0,0,1,.74-1.59,2.3,2.3,0,0,1,3.25.13,2.31,2.31,0,0,1-.14,3.25,2.3,2.3,0,0,1-3.85-1.79Z" transform="translate(-37.11 -107.56)" style="fill:url(#linear-gradient-13)"/><path d="M280,174.35a2.3,2.3,0,0,1,3.86,1.78,2.35,2.35,0,0,1-.74,1.6,2.31,2.31,0,0,1-3.86-1.79A2.33,2.33,0,0,1,280,174.35Z" transform="translate(-37.11 -107.56)" style="opacity:0.5;fill:url(#linear-gradient-14)"/></svg>