<svg xmlns="http://www.w3.org/2000/svg" xmlns:xlink="http://www.w3.org/1999/xlink" viewBox="0 0 648.95 635.37"><defs><linearGradient id="linear-gradient" x1="281.05" y1="673.47" x2="330.51" y2="673.47" gradientUnits="userSpaceOnUse"><stop offset="0" stop-color="#80eddb"/><stop offset="1" stop-color="#538498"/></linearGradient><linearGradient id="linear-gradient-2" x1="420.28" y1="529.18" x2="673.76" y2="529.18" xlink:href="#linear-gradient"/><linearGradient id="linear-gradient-3" x1="339.44" y1="777.3" x2="496.42" y2="777.3" xlink:href="#linear-gradient"/><linearGradient id="linear-gradient-4" x1="318.29" y1="547.81" x2="481.55" y2="547.81" xlink:href="#linear-gradient"/><linearGradient id="linear-gradient-5" x1="535.91" y1="669.43" x2="795.89" y2="669.43" xlink:href="#linear-gradient"/><linearGradient id="linear-gradient-6" x1="444.67" y1="398.62" x2="694.45" y2="398.62" xlink:href="#linear-gradient"/><linearGradient id="linear-gradient-7" x1="714.18" y1="428.22" x2="873.39" y2="428.22" xlink:href="#linear-gradient"/><linearGradient id="linear-gradient-8" x1="728.45" y1="651.44" x2="891.89" y2="651.44" xlink:href="#linear-gradient"/><linearGradient id="linear-gradient-9" x1="515.31" y1="801.04" x2="771.98" y2="801.04" xlink:href="#linear-gradient"/><linearGradient id="linear-gradient-10" x1="373.4" y1="373.11" x2="422.86" y2="373.11" xlink:href="#linear-gradient"/><linearGradient id="linear-gradient-11" x1="675.63" y1="310.04" x2="725.08" y2="310.04" xlink:href="#linear-gradient"/><linearGradient id="linear-gradient-12" x1="880.54" y1="532.51" x2="930" y2="532.51" xlink:href="#linear-gradient"/><linearGradient id="linear-gradient-13" x1="793.83" y1="829.57" x2="843.29" y2="829.57" xlink:href="#linear-gradient"/><linearGradient id="linear-gradient-14" x1="485.97" y1="895.94" x2="535.43" y2="895.94" xlink:href="#linear-gradient"/></defs><g id="Graphic_Elements" data-name="Graphic Elements"><path d="M324,656.72A24.73,24.73,0,1,1,289,655.28,24.62,24.62,0,0,1,324,656.72Z" transform="translate(-281.05 -285.31)" style="fill:url(#linear-gradient)"/><path d="M670.73,500.53c-.06.64-.14,1.28-.17,1.92a36.07,36.07,0,0,0,3.2,16.36l-76.52,70.47-76.52,70.48a35.91,35.91,0,0,0-18-4.51L420.28,414.68a46.22,46.22,0,0,0,17.46-16.08Z" transform="translate(-281.05 -285.31)" style="fill:url(#linear-gradient-2)"/><path d="M350.51,688.32l117.7,10.83a35.73,35.73,0,0,0,24.69,26.34l2.46,94.19,1.06,40.9a37.76,37.76,0,0,0-9.69,5.71L339.44,706.39A46.66,46.66,0,0,0,350.51,688.32Z" transform="translate(-281.05 -285.31)" style="fill:url(#linear-gradient-3)"/><path d="M396.2,420.21c.76,0,1.52,0,2.28,0l83.07,242.28c-.92.69-1.82,1.43-2.68,2.22a35.94,35.94,0,0,0-8.61,12.14L352.33,666a47.08,47.08,0,0,0-34-37.92l68.22-209.27A48,48,0,0,0,396.2,420.21Z" transform="translate(-281.05 -285.31)" style="opacity:0.5;fill:url(#linear-gradient-4)"/><path d="M538.9,695a36.13,36.13,0,0,0-3-18.71l153-141a35.9,35.9,0,0,0,18.39,4.51l88.55,248.5a46.74,46.74,0,0,0-9.26,6.61,47.64,47.64,0,0,0-7.35,8.68Z" transform="translate(-281.05 -285.31)" style="fill:url(#linear-gradient-5)"/><path d="M665.68,342a46.7,46.7,0,0,0,26.12,14.37l.09,4.05,2.56,109.68a35.54,35.54,0,0,0-12.35,7.43,33.39,33.39,0,0,0-2.43,2.48L599.8,445,445,377.32c.07-.76.18-1.51.21-2.27a48.08,48.08,0,0,0-.56-9.47l209.1-48.32A46.78,46.78,0,0,0,665.68,342Z" transform="translate(-281.05 -285.31)" style="fill:url(#linear-gradient-6)"/><path d="M873.34,497.84a47,47,0,0,0-10.39,14L741.64,497a35.58,35.58,0,0,0-24.78-27.36l-2.64-113,0-1.52a47,47,0,0,0,18.11-10.36l.05-.06,141,153.14Z" transform="translate(-281.05 -285.31)" style="opacity:0.5;fill:url(#linear-gradient-7)"/><path d="M820.5,782.47c-1,0-1.93,0-2.89,0L728.45,532.3c.8-.62,1.59-1.25,2.34-1.95A35.58,35.58,0,0,0,739,519.19l119.25,14.6a46.93,46.93,0,0,0,33.69,43.88l-62.57,206A47,47,0,0,0,820.5,782.47Z" transform="translate(-281.05 -285.31)" style="fill:url(#linear-gradient-8)"/><path d="M538.78,870.08a37.94,37.94,0,0,0-20-11.4L515.31,725a35.94,35.94,0,0,0,12.25-7.41c.76-.7,1.45-1.43,2.13-2.17l242,109.38c-.1,1-.22,1.9-.26,2.87a47.7,47.7,0,0,0,.51,9.2L547.74,886.7A38.06,38.06,0,0,0,538.78,870.08Z" transform="translate(-281.05 -285.31)" style="opacity:0.5;fill:url(#linear-gradient-9)"/><path d="M422.84,374.13a24.73,24.73,0,1,1-6.52-17.77A24.61,24.61,0,0,1,422.84,374.13Z" transform="translate(-281.05 -285.31)" style="opacity:0.5;fill:url(#linear-gradient-10)"/><path d="M717.11,328.23a24.74,24.74,0,1,1,7.95-17.18A24.72,24.72,0,0,1,717.11,328.23Z" transform="translate(-281.05 -285.31)" style="fill:url(#linear-gradient-11)"/><path d="M887.08,549.26A24.73,24.73,0,1,1,922,550.7,24.62,24.62,0,0,1,887.08,549.26Z" transform="translate(-281.05 -285.31)" style="opacity:0.5;fill:url(#linear-gradient-12)"/><path d="M793.86,828.55a24.73,24.73,0,1,1,6.52,17.77A24.66,24.66,0,0,1,793.86,828.55Z" transform="translate(-281.05 -285.31)" style="fill:url(#linear-gradient-13)"/><path d="M493.94,877.75A24.74,24.74,0,1,1,486,894.93,24.74,24.74,0,0,1,493.94,877.75Z" transform="translate(-281.05 -285.31)" style="opacity:0.5;fill:url(#linear-gradient-14)"/></g></svg>