<svg id="Layer_1" data-name="Layer 1" xmlns="http://www.w3.org/2000/svg" viewBox="0 0 697.66 203.8"><path d="M461.91,346.15c-2.55,11.45-5,22.28-7.38,33.11q-5.25,23.57-10.47,47.14a6.44,6.44,0,0,0,.12,3.35c1.68,4.55,3.52,9,5.56,14.19,1.13-1.18,1.9-2.06,2.74-2.86,9.35-8.91,11.75-20.74,14.28-32.69,4.18-19.74,8.89-39.37,13.23-59.08.59-2.69,1.73-3.43,4.37-3.4,10.23.14,20.47,0,30.71.06,1,0,2,.14,3.72.26-1,5.06-1.93,9.87-3,14.65q-8.49,38.36-17.11,76.68a12.31,12.31,0,0,1-2.72,5.33q-23.57,26-47.4,51.79a10,10,0,0,1-5.86,2.61c-3.93.4-7.93,0-11.89.15-2.43.1-3.67-.86-4.57-3.09-2.94-7.21-6.06-14.35-9.14-21.51-.44-1-1-2-1.8-3.65-2.51,2.71-4.75,5.08-6.93,7.49-5.5,6.06-10.87,12.25-16.54,18.14a9.4,9.4,0,0,1-5.55,2.49c-3.93.39-7.92,0-11.88.15a4.55,4.55,0,0,1-4.85-2.79c-7.72-15.42-15.67-30.74-23.34-46.19a10,10,0,0,1-.4-5.9c2.64-13.28,5.45-26.53,8.24-39.79,3.73-17.76,7.5-35.5,11.2-53.27.42-2,.78-3.63,3.45-3.6,11.26.1,22.52.07,33.78.1a7.76,7.76,0,0,1,1.57.47c-1.62,7.3-3.21,14.6-4.86,21.89q-6.51,28.78-13,57.56a5.71,5.71,0,0,0-.17,3c1.8,4.89,3.77,9.72,5.95,15.27,6.7-8.13,13.92-14.51,16-25.22,4.48-23.19,10.16-46.15,15.27-69.23.61-2.78,1.66-4,4.78-3.92,9.85.22,19.7.07,29.55.09C458.81,346,460.06,346.06,461.91,346.15Z" transform="translate(-100.34 -345.65)"/><path d="M280.17,346.12c-3.79,4.27-7.14,8.06-10.51,11.83q-30.42,34-60.9,68c-2.3,2.54-1.33,4.05.33,6.15q24.53,31,48.93,62c.54.69,1,1.45,1.91,2.83a37.69,37.69,0,0,1-4,.46c-12.66,0-25.33-.05-38,.07a6.52,6.52,0,0,1-5.75-3Q188.68,464,165,433.62c-.84-1.07-1.75-2.08-3.21-3.83-1.73,7.48-3.21,14.13-4.79,20.75-3.52,14.79-7,29.57-10.71,44.32-.28,1.15-1.82,2.84-2.79,2.85-11.38.16-22.76,0-34.14,0-.23,0-.45-.23-1.36-.72,1.09-5.07,2.19-10.37,3.39-15.66q10.07-44.48,20.18-88.93c3.25-14.33,6.61-28.63,9.77-43,.57-2.57,1.52-3.52,4.28-3.52q65.63,0,131.24-.23A26.76,26.76,0,0,1,280.17,346.12Zm-76.06,39a18.22,18.22,0,0,0-2.71-.63c-9.08-.23-18.15-.36-27.23-.67-2.61-.09-2.87,1.71-3.25,3.41q-4.14,18.71-8.18,37.43a18.8,18.8,0,0,0-.17,3l.84.25Z" transform="translate(-100.34 -345.65)"/><path d="M662.15,497.13c1.44-6.51,2.76-12.58,4.14-18.64q10.2-44.82,20.45-89.64c3-13.32,6.14-26.63,9.13-40,.47-2.11,1.44-3,3.65-3,23.66.05,47.32,0,71,.1a5.83,5.83,0,0,1,3.86,1.8c4.1,4.73,8.08,9.57,11.86,14.56a6.14,6.14,0,0,1,.93,4.46q-12.23,54.78-24.73,109.49a8.56,8.56,0,0,1-2.76,4.34q-9.33,7.68-19,14.95a8.78,8.78,0,0,1-4.87,1.73c-23.53.11-47.07.07-70.6.06C664.48,497.42,663.73,497.28,662.15,497.13Zm46.6-37.94c5.92,0,11.24-.1,16.56,0,2.53.07,3.5-.87,4.06-3.36,4.38-19.44,8.94-38.84,13.41-58.26,1-4.4,1.9-8.82,3-13.74-6.54,0-12.27-.12-18,.13-.8,0-2,1.71-2.24,2.81-3.85,16.16-7.58,32.34-11.31,48.52C712.42,443,710.68,450.73,708.75,459.19Z" transform="translate(-100.34 -345.65)"/><path d="M550.56,497.16c2.21-10.09,4.26-19.42,6.32-28.76q9.64-43.77,19.31-87.54a125.7,125.7,0,0,1,3-12.64,15,15,0,0,1,4.08-6.46c5.62-4.82,11.52-9.34,17.47-13.75a10,10,0,0,1,5.5-2q26.1-.23,52.18,0a6.72,6.72,0,0,1,4.54,2c3.94,4.52,7.71,9.22,11.23,14.07a7.18,7.18,0,0,1,1.08,5.14Q662.79,422.11,650,477c-1.32,5.73-2.44,11.5-4,17.16-.36,1.31-2.13,3.16-3.29,3.18-11,.24-22,.14-33,.1a10.31,10.31,0,0,1-2.25-.63c8.42-37.41,16.82-74.71,25.37-112.64-6.14,0-11.71-.1-17.26.13-.68,0-1.62,1.73-1.87,2.79q-4.58,19.4-9,38.83-7.68,33.8-15.27,67.63c-.67,3-2,4.09-5.2,4-9.72-.24-19.44-.08-29.16-.1C553.78,497.42,552.41,497.27,550.56,497.16Z" transform="translate(-100.34 -345.65)"/><path d="M341.18,347.2l-55.32,65.73h52.77c-.89,4.63-1.6,8.68-2.45,12.71-1.19,5.62-2.59,11.2-3.67,16.84-.54,2.85-2,3.59-4.73,3.56-12.15-.13-24.31-.07-36.46,0-1.47,0-2.93.23-5.5.44l42.29,51.83a18.63,18.63,0,0,1-3.08.52c-12.26-.49-24.53-.94-36.79-1.63a7.62,7.62,0,0,1-4.9-2.29q-28.18-32.64-56.13-65.51a11.68,11.68,0,0,1-.85-1.44l13.78-14.58c19.95-21.07,39.95-42.1,59.78-63.28a11.17,11.17,0,0,1,9.29-4c10.45.26,20.92.09,31.37.09Z" transform="translate(-100.34 -345.65)" style="fill:#2186c8"/><path d="M568.7,346.63c-2.34,10.44-4.6,20.64-6.93,30.82q-8.92,39-17.9,78c-2.91,12.7-5.82,25.39-8.62,38.11-.6,2.75-1.68,4-4.8,3.93-10-.23-20-.17-29.92,0-3.23,0-4.21-.69-3.41-4.19,11-48,21.9-96.12,32.92-144.16.28-1.21,1.91-3,2.93-3,11.38-.19,22.76-.09,34.13-.05A6.94,6.94,0,0,1,568.7,346.63Z" transform="translate(-100.34 -345.65)"/><text transform="translate(0 194.03)" style="font-size:31.87013053894043px;font-family:Arial-Black, Arial Black;font-weight:800;letter-spacing:0.39999983242691256em">THERE AND <tspan x="345.25" y="0" style="letter-spacing:0.38291695311191304em">B</tspan><tspan x="382.24" y="0" style="letter-spacing:0.38193641116020005em">A</tspan><tspan x="419.2" y="0" style="letter-spacing:0.39998451145891706em">CK </tspan><tspan x="519.41" y="0" style="letter-spacing:0.38192109019220455em">A</tspan><tspan x="556.38" y="0">GAIN</tspan></text></svg>