<svg id="Layer_1" data-name="Layer 1" xmlns="http://www.w3.org/2000/svg" viewBox="0 0 301.48 400.99"><path d="M601.49,253,456.25,425.55H594.81c-2.33,12.15-4.21,22.81-6.44,33.38-3.11,14.76-6.8,29.41-9.62,44.22-1.43,7.49-5.21,9.41-12.44,9.34-31.9-.34-63.81-.17-95.72-.1-3.85,0-7.7.6-14.44,1.15l111,136.1c-3.91.68-6,1.44-8.08,1.35-32.21-1.27-64.42-2.45-96.6-4.26-4.45-.26-10-2.7-12.86-6q-74-85.74-147.4-172a33.89,33.89,0,0,1-2.23-3.78c11.92-12.61,24.05-25.46,36.19-38.29,52.38-55.34,104.89-110.54,157-166.15,7-7.51,14.05-10.73,24.39-10.47,27.44.7,54.91.24,82.37.24C600.46,251.16,601,252.06,601.49,253Z" transform="translate(-300.02 -250.01)" style="fill:#2186c8"/></svg>